<svg width="289" height="135" viewBox="0 0 289 135" fill="none" xmlns="http://www.w3.org/2000/svg">
    <path d="M22.9481 98.252H16.5081C16.4334 101.575 16.3774 104.953 16.3401 108.388C16.3028 111.785 16.2841 115.463 16.2841 119.42C16.2841 121.959 16.2841 124.012 16.2841 125.58C16.2841 127.111 16.2841 128.38 16.2841 129.388C16.2841 130.359 16.2841 131.161 16.2841 131.796C16.3214 132.393 16.3401 133.028 16.3401 133.7H6.9321C6.96943 132.057 7.00676 130.359 7.0441 128.604C7.08143 126.812 7.1001 124.889 7.1001 122.836C7.13743 120.745 7.1561 118.505 7.1561 116.116C7.19343 113.689 7.2121 111.02 7.2121 108.108C7.2121 105.98 7.2121 104.132 7.2121 102.564C7.2121 100.996 7.19343 99.5587 7.1561 98.252H0.716098V87.892H22.9481V98.252ZM58.257 87.836C58.3317 93.2867 58.4437 98.0093 58.593 102.004C58.7424 105.961 58.817 109.34 58.817 112.14C58.817 113.969 58.761 115.799 58.649 117.628C58.537 119.42 58.2944 121.137 57.921 122.78C57.5477 124.423 57.0064 125.953 56.297 127.372C55.625 128.753 54.7104 129.967 53.553 131.012C52.433 132.057 51.033 132.879 49.353 133.476C47.673 134.036 45.6757 134.316 43.361 134.316C40.9717 134.316 38.9184 134.017 37.201 133.42C35.521 132.785 34.1024 131.945 32.945 130.9C31.7877 129.855 30.8544 128.623 30.145 127.204C29.473 125.748 28.9504 124.199 28.577 122.556C28.2037 120.913 27.961 119.215 27.849 117.46C27.737 115.705 27.681 113.951 27.681 112.196C27.681 110.815 27.6997 109.34 27.737 107.772C27.7744 106.204 27.8304 104.449 27.905 102.508C27.9797 100.567 28.0544 98.4013 28.129 96.012C28.241 93.6227 28.353 90.916 28.465 87.892H38.321C38.209 91.252 38.1157 94.108 38.041 96.46C37.9664 98.7747 37.8917 100.716 37.817 102.284C37.7797 103.852 37.7424 105.103 37.705 106.036C37.705 106.932 37.6864 107.623 37.649 108.108C37.649 108.593 37.649 108.948 37.649 109.172C37.649 109.359 37.649 109.508 37.649 109.62C37.649 113.241 38.0597 115.967 38.881 117.796C39.7024 119.625 41.177 120.54 43.305 120.54C45.4704 120.54 46.9264 119.551 47.673 117.572C48.457 115.593 48.849 112.588 48.849 108.556C48.849 108.369 48.849 108.164 48.849 107.94C48.849 107.679 48.8304 107.287 48.793 106.764C48.793 106.241 48.7744 105.551 48.737 104.692C48.737 103.796 48.6997 102.62 48.625 101.164C48.5877 99.6707 48.5317 97.86 48.457 95.732C48.3824 93.5667 48.289 90.9533 48.177 87.892L58.257 87.836ZM64.4871 133.7C64.5991 130.153 64.6738 126.625 64.7111 123.116C64.7484 119.569 64.7671 116.209 64.7671 113.036C64.7671 108.519 64.7298 104.225 64.6551 100.156C64.6178 96.0867 64.5618 91.9987 64.4871 87.892C66.3164 87.7053 68.1458 87.556 69.9751 87.444C71.8418 87.2947 73.7271 87.22 75.6311 87.22C78.3564 87.22 80.9138 87.4253 83.3031 87.836C85.6924 88.2093 87.7644 88.9373 89.5191 90.02C91.2738 91.0653 92.6551 92.5213 93.6631 94.388C94.7084 96.2547 95.2311 98.6627 95.2311 101.612C95.2311 105.271 94.4658 108.145 92.9351 110.236C91.4418 112.327 89.4071 113.895 86.8311 114.94L95.9591 133.7H85.9911L78.5431 116.62C77.0124 116.732 75.4258 116.788 73.7831 116.788C73.7831 119.663 73.8018 122.481 73.8391 125.244C73.8764 128.007 73.9884 130.825 74.1751 133.7H64.4871ZM73.7831 108.276C74.9404 108.388 76.0044 108.444 76.9751 108.444C79.5138 108.444 81.3058 107.977 82.3511 107.044C83.4338 106.073 83.9751 104.636 83.9751 102.732C83.9751 101.575 83.8071 100.641 83.4711 99.932C83.1724 99.2227 82.7431 98.6627 82.1831 98.252C81.6604 97.8413 81.0258 97.5613 80.2791 97.412C79.5698 97.2627 78.8044 97.188 77.9831 97.188C77.3858 97.188 76.7138 97.2253 75.9671 97.3C75.2578 97.3373 74.5298 97.412 73.7831 97.524V108.276ZM122.808 87.892H130.816C130.704 95.508 130.648 103.143 130.648 110.796C130.648 118.449 130.704 126.084 130.816 133.7H120.008L108.136 106.316V133.7H100.464C100.538 129.855 100.594 126.047 100.632 122.276C100.669 118.468 100.688 114.641 100.688 110.796C100.688 106.951 100.669 103.143 100.632 99.372C100.594 95.564 100.538 91.7373 100.464 87.892H111.776L122.808 115.22V87.892ZM136.318 99.26C136.318 96.8707 136.766 94.9107 137.662 93.38C138.595 91.812 139.752 90.58 141.134 89.684C142.552 88.7507 144.102 88.116 145.782 87.78C147.499 87.4067 149.142 87.22 150.71 87.22C151.158 87.22 151.718 87.2387 152.39 87.276C153.099 87.3133 153.827 87.3693 154.574 87.444C155.358 87.5187 156.142 87.6307 156.926 87.78C157.747 87.892 158.512 88.06 159.222 88.284C159.296 89.2547 159.352 90.1693 159.39 91.028C159.427 91.8493 159.446 92.8013 159.446 93.884C159.446 94.9667 159.427 96.012 159.39 97.02C159.352 97.9907 159.296 98.924 159.222 99.82C158.923 99.7827 158.531 99.7267 158.046 99.652C157.598 99.5773 157.112 99.5213 156.59 99.484C156.104 99.4467 155.6 99.4093 155.078 99.372C154.592 99.3347 154.126 99.316 153.678 99.316C151.886 99.316 150.579 99.596 149.758 100.156C148.936 100.716 148.526 101.481 148.526 102.452C148.526 103.012 148.656 103.553 148.918 104.076C149.179 104.561 149.515 105.028 149.926 105.476C150.374 105.924 150.859 106.353 151.382 106.764C151.942 107.175 152.502 107.567 153.062 107.94C153.958 108.575 154.854 109.284 155.75 110.068C156.683 110.815 157.523 111.729 158.27 112.812C159.016 113.857 159.632 115.089 160.118 116.508C160.603 117.889 160.846 119.495 160.846 121.324C160.846 123.713 160.435 125.729 159.614 127.372C158.792 129.015 157.728 130.359 156.422 131.404C155.152 132.412 153.715 133.159 152.11 133.644C150.542 134.092 148.974 134.316 147.406 134.316C146.696 134.316 145.819 134.26 144.774 134.148C143.766 134.073 142.739 133.943 141.694 133.756C140.648 133.607 139.659 133.42 138.726 133.196C137.792 132.935 137.046 132.636 136.486 132.3C136.336 131.628 136.206 130.937 136.094 130.228C136.019 129.519 135.982 128.735 135.982 127.876C135.982 127.279 136 126.551 136.038 125.692C136.112 124.833 136.187 123.956 136.262 123.06C136.336 122.164 136.411 121.305 136.486 120.484C136.598 119.663 136.691 118.972 136.766 118.412C137.176 118.636 137.774 118.897 138.558 119.196C139.342 119.457 140.182 119.719 141.078 119.98C142.011 120.241 142.944 120.465 143.878 120.652C144.811 120.839 145.632 120.932 146.342 120.932C147.536 120.932 148.432 120.689 149.03 120.204C149.627 119.681 149.926 118.991 149.926 118.132C149.926 117.199 149.59 116.377 148.918 115.668C148.246 114.921 147.406 114.193 146.398 113.484C145.39 112.775 144.288 112.028 143.094 111.244C141.936 110.423 140.854 109.471 139.846 108.388C138.838 107.305 137.998 106.036 137.326 104.58C136.654 103.087 136.318 101.313 136.318 99.26ZM191.093 87.22C196.656 87.22 200.762 89.1987 203.413 93.156C206.064 97.1133 207.389 102.863 207.389 110.404C207.389 118.057 206.082 123.956 203.469 128.1C200.893 132.244 196.768 134.316 191.093 134.316C188.293 134.316 185.866 133.793 183.813 132.748C181.76 131.665 180.061 130.116 178.717 128.1C177.373 126.047 176.384 123.545 175.749 120.596C175.114 117.609 174.797 114.212 174.797 110.404C174.797 102.751 176.122 96.9827 178.773 93.1C181.424 89.18 185.53 87.22 191.093 87.22ZM191.093 119.868C192.288 119.868 193.333 119.607 194.229 119.084C195.162 118.524 195.928 117.777 196.525 116.844C197.122 115.873 197.57 114.735 197.869 113.428C198.168 112.084 198.317 110.609 198.317 109.004C198.317 107.399 198.168 105.924 197.869 104.58C197.57 103.199 197.122 102.004 196.525 100.996C195.928 99.988 195.162 99.204 194.229 98.644C193.333 98.084 192.288 97.804 191.093 97.804C189.898 97.804 188.853 98.1027 187.957 98.7C187.098 99.26 186.352 100.044 185.717 101.052C185.12 102.06 184.672 103.255 184.373 104.636C184.074 105.98 183.925 107.436 183.925 109.004C183.925 110.609 184.074 112.084 184.373 113.428C184.672 114.735 185.12 115.873 185.717 116.844C186.352 117.777 187.098 118.524 187.957 119.084C188.853 119.607 189.898 119.868 191.093 119.868ZM234.995 87.892H243.003C242.891 95.508 242.835 103.143 242.835 110.796C242.835 118.449 242.891 126.084 243.003 133.7H232.195L220.323 106.316V133.7H212.651C212.726 129.855 212.782 126.047 212.819 122.276C212.856 118.468 212.875 114.641 212.875 110.796C212.875 106.951 212.856 103.143 212.819 99.372C212.782 95.564 212.726 91.7373 212.651 87.892H223.963L234.995 115.22V87.892ZM269.841 133.868C268.796 133.831 267.415 133.793 265.697 133.756C263.98 133.756 262.132 133.737 260.153 133.7C258.212 133.7 256.252 133.7 254.273 133.7C252.332 133.7 250.615 133.7 249.121 133.7C249.159 132.916 249.177 131.871 249.177 130.564C249.215 129.257 249.233 127.764 249.233 126.084C249.233 124.404 249.233 122.593 249.233 120.652C249.233 118.673 249.233 116.639 249.233 114.548C249.233 111.711 249.215 108.873 249.177 106.036C249.177 103.199 249.177 100.567 249.177 98.14C249.177 95.676 249.159 93.548 249.121 91.756C249.121 89.964 249.121 88.6947 249.121 87.948C250.577 87.948 252.183 87.948 253.937 87.948C255.692 87.948 257.484 87.948 259.313 87.948C261.143 87.9107 262.935 87.8733 264.689 87.836C266.444 87.7987 268.087 87.7613 269.617 87.724C269.617 88.2093 269.617 88.6387 269.617 89.012C269.655 89.348 269.673 89.8333 269.673 90.468C269.673 90.916 269.655 91.4573 269.617 92.092C269.617 92.6893 269.599 93.324 269.561 93.996C269.561 94.6307 269.543 95.284 269.505 95.956C269.505 96.5907 269.487 97.188 269.449 97.748H258.193V104.244H267.993V112.588H258.193V118.86H269.617C269.655 119.719 269.692 120.596 269.729 121.492C269.767 122.388 269.785 123.396 269.785 124.516C269.823 125.636 269.841 126.961 269.841 128.492C269.841 129.985 269.841 131.777 269.841 133.868ZM287.179 87.556L284.435 116.732H277.659V86.604L287.179 87.556ZM280.515 122.276C281.449 122.276 282.27 122.463 282.979 122.836C283.726 123.209 284.342 123.695 284.827 124.292C285.35 124.852 285.742 125.487 286.003 126.196C286.265 126.868 286.395 127.521 286.395 128.156C286.395 128.977 286.227 129.761 285.891 130.508C285.593 131.255 285.163 131.908 284.603 132.468C284.081 133.028 283.446 133.476 282.699 133.812C281.99 134.148 281.243 134.316 280.459 134.316C279.451 134.316 278.574 134.148 277.827 133.812C277.081 133.513 276.465 133.103 275.979 132.58C275.494 132.02 275.121 131.404 274.859 130.732C274.635 130.06 274.523 129.369 274.523 128.66C274.523 127.913 274.654 127.167 274.915 126.42C275.177 125.636 275.55 124.945 276.035 124.348C276.558 123.713 277.193 123.209 277.939 122.836C278.686 122.463 279.545 122.276 280.515 122.276Z" fill="#78350F"/>
    <path d="M33.9301 7.15256e-07C36.0901 7.15256e-07 37.9501 0.150001 39.5101 0.45C41.1301 0.690001 42.6301 1.05 44.0101 1.53C44.0101 2.55 44.0101 3.63 44.0101 4.77C44.0701 5.91 44.1001 7.14 44.1001 8.46C44.1001 9.78 44.0701 11.19 44.0101 12.69C44.0101 14.13 44.0101 15.48 44.0101 16.74C41.7301 15.3 39.0001 14.58 35.8201 14.58C32.8201 14.58 30.3001 15.15 28.2601 16.29C26.2801 17.37 24.6601 18.78 23.4001 20.52C22.2001 22.26 21.3301 24.18 20.7901 26.28C20.3101 28.32 20.0701 30.27 20.0701 32.13C20.0701 34.65 20.4601 37.02 21.2401 39.24C22.0201 41.46 23.1001 43.41 24.4801 45.09C25.9201 46.71 27.5701 48 29.4301 48.96C31.3501 49.92 33.4201 50.4 35.6401 50.4C36.6601 50.4 37.9501 50.25 39.5101 49.95C41.1301 49.65 42.6301 49.08 44.0101 48.24C44.0101 50.34 44.0101 52.53 44.0101 54.81C44.0701 57.09 44.1001 59.31 44.1001 61.47C44.1001 63.75 44.0701 65.97 44.0101 68.13C44.0101 70.29 44.0101 72.45 44.0101 74.61C40.6501 75.33 37.2301 75.69 33.7501 75.69C28.4701 75.69 23.7301 74.82 19.5301 73.08C15.3901 71.34 11.8501 68.85 8.9101 65.61C6.0301 62.31 3.8101 58.35 2.2501 53.73C0.750098 49.05 9.772e-05 43.83 9.772e-05 38.07C9.772e-05 32.55 0.720098 27.48 2.1601 22.86C3.6001 18.18 5.7301 14.16 8.5501 10.8C11.4301 7.38 14.9701 4.74 19.1701 2.88C23.4301 0.960001 28.3501 7.15256e-07 33.9301 7.15256e-07ZM48.1463 74.7L61.4663 1.08H83.6964L96.9264 74.7H81.7163L79.4663 59.94H65.6063L63.4463 74.7H48.1463ZM68.0363 43.83H77.0363L72.5363 14.13L68.0363 43.83ZM108.493 49.23V34.65C108.493 30.81 108.463 27.54 108.403 24.84C108.403 22.14 108.403 19.65 108.403 17.37H101.743C101.683 15.99 101.623 14.64 101.563 13.32C101.503 12 101.473 10.65 101.473 9.27C101.473 7.89 101.503 6.51 101.563 5.13C101.623 3.75 101.683 2.4 101.743 1.08H129.463C129.523 2.46 129.553 3.84 129.553 5.22C129.553 6.54 129.553 7.89 129.553 9.27C129.553 10.65 129.553 12 129.553 13.32C129.553 14.64 129.523 15.99 129.463 17.37H122.893C122.773 21.39 122.683 25.35 122.623 29.25C122.623 33.15 122.623 37.5 122.623 42.3V49.23H129.463C129.523 51.39 129.553 53.52 129.553 55.62C129.553 57.72 129.553 59.85 129.553 62.01C129.553 64.11 129.553 66.24 129.553 68.4C129.553 70.5 129.523 72.6 129.463 74.7H101.743C101.683 72.6 101.623 70.5 101.563 68.4C101.503 66.24 101.473 64.11 101.473 62.01C101.473 59.85 101.503 57.72 101.563 55.62C101.623 53.52 101.683 51.39 101.743 49.23H108.493ZM137.005 74.7C137.185 69 137.305 63.33 137.365 57.69C137.425 51.99 137.455 46.59 137.455 41.49C137.455 34.23 137.395 27.33 137.275 20.79C137.215 14.25 137.125 7.68 137.005 1.08C139.945 0.780003 142.885 0.540003 145.825 0.360001C148.825 0.120001 151.855 7.15256e-07 154.915 7.15256e-07C159.295 7.15256e-07 163.405 0.33 167.245 0.989999C171.085 1.59 174.415 2.76 177.235 4.5C180.055 6.18 182.275 8.52 183.895 11.52C185.575 14.52 186.415 18.39 186.415 23.13C186.415 29.01 185.185 33.63 182.725 36.99C180.325 40.35 177.055 42.87 172.915 44.55L187.585 74.7H171.565L159.595 47.25C157.135 47.43 154.585 47.52 151.945 47.52C151.945 52.14 151.975 56.67 152.035 61.11C152.095 65.55 152.275 70.08 152.575 74.7H137.005ZM151.945 33.84C153.805 34.02 155.515 34.11 157.075 34.11C161.155 34.11 164.035 33.36 165.715 31.86C167.455 30.3 168.325 27.99 168.325 24.93C168.325 23.07 168.055 21.57 167.515 20.43C167.035 19.29 166.345 18.39 165.445 17.73C164.605 17.07 163.585 16.62 162.385 16.38C161.245 16.14 160.015 16.02 158.695 16.02C157.735 16.02 156.655 16.08 155.455 16.2C154.315 16.26 153.145 16.38 151.945 16.56V33.84ZM241.513 0.989999C241.633 9.75 241.813 17.34 242.053 23.76C242.293 30.12 242.413 35.55 242.413 40.05C242.413 42.99 242.323 45.93 242.143 48.87C241.963 51.75 241.573 54.51 240.973 57.15C240.373 59.79 239.503 62.25 238.363 64.53C237.283 66.75 235.813 68.7 233.953 70.38C232.153 72.06 229.903 73.38 227.203 74.34C224.503 75.24 221.293 75.69 217.573 75.69C213.733 75.69 210.433 75.21 207.673 74.25C204.973 73.23 202.693 71.88 200.833 70.2C198.973 68.52 197.473 66.54 196.333 64.26C195.253 61.92 194.413 59.43 193.813 56.79C193.213 54.15 192.823 51.42 192.643 48.6C192.463 45.78 192.373 42.96 192.373 40.14C192.373 37.92 192.403 35.55 192.463 33.03C192.523 30.51 192.613 27.69 192.733 24.57C192.853 21.45 192.973 17.97 193.093 14.13C193.273 10.29 193.453 5.94 193.633 1.08H209.473C209.293 6.48 209.143 11.07 209.023 14.85C208.903 18.57 208.783 21.69 208.663 24.21C208.603 26.73 208.543 28.74 208.483 30.24C208.483 31.68 208.453 32.79 208.393 33.57C208.393 34.35 208.393 34.92 208.393 35.28C208.393 35.58 208.393 35.82 208.393 36C208.393 41.82 209.053 46.2 210.373 49.14C211.693 52.08 214.063 53.55 217.483 53.55C220.963 53.55 223.303 51.96 224.503 48.78C225.763 45.6 226.393 40.77 226.393 34.29C226.393 33.99 226.393 33.66 226.393 33.3C226.393 32.88 226.363 32.25 226.303 31.41C226.303 30.57 226.273 29.46 226.213 28.08C226.213 26.64 226.153 24.75 226.033 22.41C225.973 20.01 225.883 17.1 225.763 13.68C225.643 10.2 225.493 6 225.313 1.08L241.513 0.989999ZM248.804 19.35C248.804 15.51 249.524 12.36 250.964 9.9C252.464 7.38 254.324 5.4 256.544 3.96C258.824 2.46 261.314 1.44 264.014 0.9C266.774 0.3 269.414 7.15256e-07 271.934 7.15256e-07C272.654 7.15256e-07 273.554 0.0300003 274.634 0.0899996C275.774 0.149999 276.944 0.239999 278.144 0.360001C279.404 0.48 280.664 0.659999 281.924 0.9C283.244 1.08 284.474 1.35 285.614 1.71C285.734 3.27 285.824 4.74 285.884 6.12C285.944 7.44 285.974 8.97 285.974 10.71C285.974 12.45 285.944 14.13 285.884 15.75C285.824 17.31 285.734 18.81 285.614 20.25C285.134 20.19 284.504 20.1 283.724 19.98C283.004 19.86 282.224 19.77 281.384 19.71C280.604 19.65 279.794 19.59 278.954 19.53C278.174 19.47 277.424 19.44 276.704 19.44C273.824 19.44 271.724 19.89 270.404 20.79C269.084 21.69 268.424 22.92 268.424 24.48C268.424 25.38 268.634 26.25 269.054 27.09C269.474 27.87 270.014 28.62 270.674 29.34C271.394 30.06 272.174 30.75 273.014 31.41C273.914 32.07 274.814 32.7 275.714 33.3C277.154 34.32 278.594 35.46 280.034 36.72C281.534 37.92 282.884 39.39 284.084 41.13C285.284 42.81 286.274 44.79 287.054 47.07C287.834 49.29 288.224 51.87 288.224 54.81C288.224 58.65 287.564 61.89 286.244 64.53C284.924 67.17 283.214 69.33 281.114 71.01C279.074 72.63 276.764 73.83 274.184 74.61C271.664 75.33 269.144 75.69 266.624 75.69C265.484 75.69 264.074 75.6 262.394 75.42C260.774 75.3 259.124 75.09 257.444 74.79C255.764 74.55 254.174 74.25 252.674 73.89C251.174 73.47 249.974 72.99 249.074 72.45C248.834 71.37 248.624 70.26 248.444 69.12C248.324 67.98 248.264 66.72 248.264 65.34C248.264 64.38 248.294 63.21 248.354 61.83C248.474 60.45 248.594 59.04 248.714 57.6C248.834 56.16 248.954 54.78 249.074 53.46C249.254 52.14 249.404 51.03 249.524 50.13C250.184 50.49 251.144 50.91 252.404 51.39C253.664 51.81 255.014 52.23 256.454 52.65C257.954 53.07 259.454 53.43 260.954 53.73C262.454 54.03 263.774 54.18 264.914 54.18C266.834 54.18 268.274 53.79 269.234 53.01C270.194 52.17 270.674 51.06 270.674 49.68C270.674 48.18 270.134 46.86 269.054 45.72C267.974 44.52 266.624 43.35 265.004 42.21C263.384 41.07 261.614 39.87 259.694 38.61C257.834 37.29 256.094 35.76 254.474 34.02C252.854 32.28 251.504 30.24 250.424 27.9C249.344 25.5 248.804 22.65 248.804 19.35Z" fill="#78350F"/>
</svg>